<svg width="31" height="34" viewBox="0 0 31 34" fill="none" xmlns="http://www.w3.org/2000/svg">
<path d="M9.43439 15.6923C5.71266 15.6923 2.69554 12.7649 2.69554 9.15385V3.92308C2.69554 3.20097 3.29907 2.61538 4.04331 2.61538H5.39108C6.13532 2.61538 6.73885 2.0298 6.73885 1.30769C6.73885 0.585585 6.13532 0 5.39108 0H4.04331C1.81032 0 0 1.75649 0 3.92308V9.15385C0.0035042 12.1526 1.52514 14.9587 4.07027 16.66C6.50461 18.7424 7.95562 21.6998 8.08662 24.8462C8.08662 29.9017 12.3105 34 17.521 34C22.7315 34 26.9554 29.9017 26.9554 24.8462V23.3554C29.8383 22.6333 31.5718 19.7802 30.8275 16.983C30.083 14.1858 27.1427 12.5039 24.2599 13.226C21.377 13.9484 19.6435 16.8012 20.3877 19.5984C20.878 21.4409 22.3609 22.8796 24.2599 23.3554V24.8462C24.2599 28.4572 21.2427 31.3846 17.521 31.3846C13.7993 31.3846 10.7822 28.4572 10.7822 24.8462C10.9199 21.6959 12.3812 18.7377 14.8255 16.66C17.3604 14.9527 18.8715 12.1479 18.8688 9.15385V3.92308C18.8688 1.75649 17.0585 0 14.8255 0H13.4777C12.7335 0 12.1299 0.585585 12.1299 1.30769C12.1299 2.0298 12.7335 2.61538 13.4777 2.61538H14.8255C15.5697 2.61538 16.1732 3.20097 16.1732 3.92308V9.15385C16.1732 12.7649 13.1561 15.6923 9.43439 15.6923ZM25.6076 20.9231C24.1189 20.9231 22.9121 19.7522 22.9121 18.3077C22.9121 16.8632 24.1189 15.6923 25.6076 15.6923C27.0964 15.6923 28.3032 16.8632 28.3032 18.3077C28.3032 19.7522 27.0964 20.9231 25.6076 20.9231Z" fill="white"/>
</svg>
